<svg id="Layer_1" data-name="Layer 1" xmlns="http://www.w3.org/2000/svg" xmlns:xlink="http://www.w3.org/1999/xlink" viewBox="0 0 1390.27 313"><defs><style>.cls-1{fill:url(#linear-gradient);}.cls-2{fill:url(#radial-gradient);}.cls-3{fill:url(#linear-gradient-2);}</style><linearGradient id="linear-gradient" x1="32.5" y1="0.89" x2="32.5" y2="313.89" gradientTransform="matrix(1, 0, 0, -1, 0, 313.89)" gradientUnits="userSpaceOnUse"><stop offset="0" stop-color="#503232"/><stop offset="0.03" stop-color="#543534"/><stop offset="0.28" stop-color="#714b40"/><stop offset="0.53" stop-color="#865b49"/><stop offset="0.77" stop-color="#93654e"/><stop offset="1" stop-color="#976850"/></linearGradient><radialGradient id="radial-gradient" cx="392.58" cy="-100.26" fx="436.938397693279" fy="-132.59429395714284" r="219.34" gradientTransform="matrix(1, 0, 0, -1, -108, 49.89)" gradientUnits="userSpaceOnUse"><stop offset="0" stop-color="#976850"/><stop offset="0.38" stop-color="#95664f"/><stop offset="0.58" stop-color="#8d604c"/><stop offset="0.73" stop-color="#7f5646"/><stop offset="0.87" stop-color="#6c483e"/><stop offset="0.99" stop-color="#543533"/><stop offset="1" stop-color="#513332"/></radialGradient><linearGradient id="linear-gradient-2" x1="941.26" y1="69.18" x2="941.26" y2="242.68" gradientUnits="userSpaceOnUse"><stop offset="0" stop-color="#976850"/><stop offset="0.26" stop-color="#94654f"/><stop offset="0.49" stop-color="#895d4a"/><stop offset="0.71" stop-color="#775042"/><stop offset="0.91" stop-color="#5e3d38"/><stop offset="1" stop-color="#513332"/></linearGradient></defs><rect class="cls-1" width="65" height="313"/><path class="cls-2" d="M272.77,212.59h0L134.6,0H410.94Zm-.19,91.5L133.85,90.63V313H411.31V90.63Z" transform="translate(0 0)"/><path class="cls-3" d="M492.25,67.5H510.5l74.25,95.25L659,67.5h18.5V235H648.75V122.75l-58.5,76.5h-11l-58.5-76.5V235h-28.5Z" transform="translate(0 0)"/><path class="cls-3" d="M741.57,67.5h29.75V235H741.57Z" transform="translate(0 0)"/><path class="cls-3" d="M942.72,235l-39.5-61.75H863.47V235H835V67.5h80c29.5,0,53.25,22.5,53.25,53.25,0,23.75-14.5,43-36.25,49.75L975,235Zm-79.25-84.25h43.75c18.25,0,32.5-13,32.5-30,0-16.75-14-29.75-31.5-29.75H863.47Z" transform="translate(0 0)"/><path class="cls-3" d="M1012.84,151.25c0-47.75,40.25-86.75,89.5-86.75,49.5,0,89.75,39,89.75,86.75S1151.84,238,1102.34,238C1053.09,238,1012.84,199,1012.84,151.25Zm149.5,0a59.88,59.88,0,1,0-60,59.75A59.8,59.8,0,0,0,1162.34,151.25Z" transform="translate(0 0)"/><path class="cls-3" d="M1246.27,67.5l56.5,121.25L1359,67.5h31.25L1309,235.75h-12.75l-81-168.25Z" transform="translate(0 0)"/></svg>